<svg width="32" height="32" viewBox="0 0 32 32" fill="none" xmlns="http://www.w3.org/2000/svg">
            <g clip-path="url(#clip0_3165_15390)">
            <path d="M32 16C32 24.8365 24.8365 32 16 32C7.1635 32 0 24.8365 0 16C0 16.0037 16 0.0018125 16 0C24.8365 0 32 7.1635 32 16Z" fill="#0052B4"/>
            <path d="M15.957 16.0007H15.9999C15.9999 15.9861 15.9999 15.9722 15.9999 15.9578C15.9857 15.9721 15.9714 15.9864 15.957 16.0007Z" fill="#F0F0F0"/>
            <path d="M16 8.34903C16 5.53372 16 3.68891 16 0.0012207H15.9973C7.162 0.0026582 0 7.16547 0 16.0012H8.34781V11.3004L13.0486 16.0012H15.9572C15.9716 15.9869 15.9858 15.9727 16.0001 15.9583C16.0001 14.8804 16.0001 13.9186 16.0001 13.0498L11.2992 8.34903H16Z" fill="#F0F0F0"/>
            <path d="M8.09564 2.08765C5.5932 3.51258 3.51283 5.59296 2.08789 8.0954V16.0007H6.26183V6.26165V6.26158H16.001C16.001 4.94515 16.001 3.69102 16.001 2.08765H8.09564Z" fill="#D80027"/>
            <path d="M16.0017 14.0332L10.3172 8.34866H8.34961C8.34961 8.3486 8.34961 8.34866 8.34961 8.34866L16.0017 16.0007H16.0017C16.0017 16.0007 16.0017 14.6442 16.0017 14.0332Z" fill="#D80027"/>
            <path d="M9.64972 18.782L10.5278 20.6181L12.5108 20.1598L11.6228 21.9912L13.2174 23.2557L11.232 23.7032L11.2375 25.7385L9.64972 24.4652L8.06197 25.7385L8.06753 23.7032L6.08203 23.2557L7.67672 21.9912L6.78859 20.1598L8.77166 20.6181L9.64972 18.782Z" fill="#F0F0F0"/>
            <path d="M23.9557 22.2605L24.3947 23.1786L25.3862 22.9494L24.9422 23.8651L25.7396 24.4974L24.7468 24.7211L24.7496 25.7387L23.9557 25.1021L23.1618 25.7387L23.1646 24.7211L22.1719 24.4974L22.9692 23.8651L22.5252 22.9494L23.5166 23.1786L23.9557 22.2605Z" fill="#F0F0F0"/>
            <path d="M19.8718 12.5217L20.3108 13.4399L21.3023 13.2106L20.8583 14.1263L21.6556 14.7586L20.6629 14.9824L20.6656 16L19.8718 15.3633L19.0779 16L19.0806 14.9824L18.0879 14.7586L18.8852 14.1263L18.4412 13.2106L19.4327 13.4399L19.8718 12.5217Z" fill="#F0F0F0"/>
            <path d="M23.9557 6.95679L24.3947 7.87491L25.3862 7.64573L24.9422 8.56141L25.7395 9.19366L24.7468 9.41748L24.7496 10.4351L23.9557 9.79841L23.1618 10.4351L23.1646 9.41748L22.1719 9.19366L22.9691 8.56141L22.5252 7.64573L23.5166 7.87491L23.9557 6.95679Z" fill="#F0F0F0"/>
            <path d="M27.5222 11.1304L27.9612 12.0485L28.9527 11.8192L28.5087 12.7349L29.306 13.3672L28.3132 13.5911L28.316 14.6086L27.5222 13.972L26.7283 14.6086L26.731 13.5911L25.7383 13.3672L26.5356 12.7349L26.0916 11.8192L27.083 12.0485L27.5222 11.1304Z" fill="#F0F0F0"/>
            <path d="M24.9727 16.0005L25.318 17.0634H26.4356L25.5315 17.7203L25.8769 18.7831L24.9727 18.1262L24.0686 18.7831L24.4139 17.7203L23.5098 17.0634H24.6273L24.9727 16.0005Z" fill="#F0F0F0"/>
            </g>
            <defs>
            <clipPath id="clip0_3165_15390">
            <rect width="32" height="32" fill="white"/>
            </clipPath>
            </defs>
            </svg>