<svg width="32" height="32" viewBox="0 0 32 32" fill="none" xmlns="http://www.w3.org/2000/svg">
            <g clip-path="url(#clip0_3150_17880)">
            <path d="M16 32C24.8366 32 32 24.8366 32 16C32 7.16344 24.8366 0 16 0C7.16344 0 0 7.16344 0 16C0 24.8366 7.16344 32 16 32Z" fill="#F0F0F0"/>
            <path d="M32.0005 16.0015C32.0005 9.65811 28.309 4.17711 22.957 1.58911V30.4138C28.309 27.8259 32.0005 22.3449 32.0005 16.0015Z" fill="#D80027"/>
            <path d="M0 16.0005C0 22.3439 3.69156 27.8249 9.0435 30.4129V1.58813C3.69156 4.17613 0 9.65713 0 16.0005Z" fill="#D80027"/>
            <path d="M18.7834 18.0883L21.5659 16.697L20.1747 16.0014V14.6101L17.392 16.0014L18.7834 13.2188H17.392L16.0007 11.1318L14.6094 13.2188H13.2181L14.6094 16.0014L11.8268 14.6101V16.0014L10.4355 16.697L13.2181 18.0883L12.5225 19.4796H15.3051V21.5666H16.6964V19.4796H19.479L18.7834 18.0883Z" fill="#D80027"/>
            </g>
            <defs>
            <clipPath id="clip0_3150_17880">
            <rect width="32" height="32" fill="white"/>
            </clipPath>
            </defs>
            </svg>