<svg width="23" height="19" viewBox="0 0 23 19" fill="none" xmlns="http://www.w3.org/2000/svg">
<path d="M2.5 0.666504H20C21.3672 0.666504 22.5 1.79932 22.5 3.1665V4.4165H0V3.1665C0 1.79932 1.09375 0.666504 2.5 0.666504ZM22.5 8.1665V15.6665C22.5 17.0728 21.3672 18.1665 20 18.1665H2.5C1.09375 18.1665 0 17.0728 0 15.6665V8.1665H22.5ZM4.375 13.1665C4.02344 13.1665 3.75 13.479 3.75 13.7915C3.75 14.1431 4.02344 14.4165 4.375 14.4165H6.875C7.1875 14.4165 7.5 14.1431 7.5 13.7915C7.5 13.479 7.1875 13.1665 6.875 13.1665H4.375ZM8.75 13.7915C8.75 14.1431 9.02344 14.4165 9.375 14.4165H14.375C14.6875 14.4165 15 14.1431 15 13.7915C15 13.479 14.6875 13.1665 14.375 13.1665H9.375C9.02344 13.1665 8.75 13.479 8.75 13.7915Z" fill="#D92D20"/>
</svg>
