<svg width="32" height="32" viewBox="0 0 32 32" fill="none" xmlns="http://www.w3.org/2000/svg">
<g clip-path="url(#clip0_3180_15543)">
<path d="M16 32C24.8366 32 32 24.8366 32 16C32 7.16344 24.8366 0 16 0C7.16344 0 0 7.16344 0 16C0 24.8366 7.16344 32 16 32Z" fill="#F0F0F0"/>
<path d="M31.9993 15.9999C31.9993 9.12049 27.6573 3.2558 21.5645 0.995117V31.0048C27.6573 28.7441 31.9993 22.8794 31.9993 15.9999Z" fill="#D80027"/>
<path d="M0 16.0009C0 22.8803 4.34206 28.745 10.4348 31.0057V0.996094C4.34206 3.25678 0 9.12147 0 16.0009Z" fill="#0052B4"/>
</g>
<defs>
<clipPath id="clip0_3180_15543">
<rect width="32" height="32" fill="white"/>
</clipPath>
</defs>
</svg>
