<svg width="32" height="32" viewBox="0 0 32 32" fill="none" xmlns="http://www.w3.org/2000/svg">
            <g clip-path="url(#clip0_3165_15554)">
            <path d="M0.994141 21.5665C3.25483 27.6593 9.11951 32.0013 15.999 32.0013C22.8784 32.0013 28.7431 27.6593 31.0038 21.5665L15.999 20.1753L0.994141 21.5665Z" fill="#FFDA44"/>
            <path d="M15.999 0.000976562C9.11951 0.000976562 3.25483 4.34298 0.994141 10.4358L15.999 11.827L31.0038 10.4357C28.7431 4.34298 22.8784 0.000976562 15.999 0.000976562Z" fill="black"/>
            <path d="M0.995188 10.4343C0.352063 12.1676 0 14.0424 0 15.9995C0 17.9566 0.352063 19.8314 0.995188 21.5647H31.0049C31.648 19.8314 32 17.9566 32 15.9995C32 14.0424 31.648 12.1676 31.0048 10.4343H0.995188Z" fill="#D80027"/>
            </g>
            <defs>
            <clipPath id="clip0_3165_15554">
            <rect width="32" height="32" fill="white"/>
            </clipPath>
            </defs>
            </svg>