<svg width="32" height="32" viewBox="0 0 32 32" fill="none" xmlns="http://www.w3.org/2000/svg">
<g clip-path="url(#clip0_3180_15565)">
<path d="M16 32C24.8366 32 32 24.8366 32 16C32 7.16344 24.8366 0 16 0C7.16344 0 0 7.16344 0 16C0 24.8366 7.16344 32 16 32Z" fill="#F0F0F0"/>
<path d="M16.0003 -0.0012207C9.65689 -0.0012207 4.17589 3.69034 1.58789 9.04228H30.4126C27.8246 3.69034 22.3436 -0.0012207 16.0003 -0.0012207Z" fill="#FF9811"/>
<path d="M16.0003 31.9996C22.3436 31.9996 27.8246 28.308 30.4126 22.9561H1.58789C4.17589 28.308 9.65689 31.9996 16.0003 31.9996Z" fill="#6DA544"/>
<path d="M16.0007 21.5642C19.0743 21.5642 21.5659 19.0726 21.5659 15.999C21.5659 12.9255 19.0743 10.4338 16.0007 10.4338C12.9272 10.4338 10.4355 12.9255 10.4355 15.999C10.4355 19.0726 12.9272 21.5642 16.0007 21.5642Z" fill="#0052B4"/>
<path d="M15.9997 19.4775C17.9207 19.4775 19.478 17.9202 19.478 15.9992C19.478 14.0783 17.9207 12.521 15.9997 12.521C14.0787 12.521 12.5215 14.0783 12.5215 15.9992C12.5215 17.9202 14.0787 19.4775 15.9997 19.4775Z" fill="#F0F0F0"/>
<path d="M16.0003 11.7078L17.0733 14.1414L19.7173 13.8538L18.1463 15.9999L19.7173 18.146L17.0733 17.8584L16.0003 20.292L14.9272 17.8584L12.2832 18.1459L13.8542 15.9999L12.2832 13.8538L14.9272 14.1414L16.0003 11.7078Z" fill="#0052B4"/>
</g>
<defs>
<clipPath id="clip0_3180_15565">
<rect width="32" height="32" fill="white"/>
</clipPath>
</defs>
</svg>
