<svg width="32" height="32" viewBox="0 0 32 32" fill="none" xmlns="http://www.w3.org/2000/svg">
            <g clip-path="url(#clip0_3150_15677)">
            <path d="M16 32C24.8366 32 32 24.8366 32 16C32 7.16344 24.8366 0 16 0C7.16344 0 0 7.16344 0 16C0 24.8366 7.16344 32 16 32Z" fill="#F0F0F0"/>
            <path d="M0 16.0001C0 7.1635 7.1635 0 16 0C24.8365 0 32 7.1635 32 16.0001" fill="#D80027"/>
            <path d="M9.73934 8.34802C9.73934 6.01689 11.3777 4.06952 13.5654 3.5917C13.2292 3.51833 12.8803 3.47852 12.5219 3.47852C9.83247 3.47852 7.65234 5.65864 7.65234 8.34808C7.65234 11.0375 9.83247 13.2176 12.5219 13.2176C12.8802 13.2176 13.2291 13.1778 13.5654 13.1044C11.3777 12.6266 9.73934 10.6792 9.73934 8.34802Z" fill="#F0F0F0"/>
            <path d="M16 3.82666L16.3454 4.88947H17.4629L16.5587 5.54641L16.9041 6.60923L16 5.95241L15.0959 6.60923L15.4412 5.54641L14.5371 4.88947H15.6546L16 3.82666Z" fill="#F0F0F0"/>
            <path d="M13.2892 5.91284L13.6345 6.97572H14.752L13.8479 7.63259L14.1933 8.6954L13.2892 8.03859L12.3849 8.6954L12.7304 7.63259L11.8262 6.97572H12.9437L13.2892 5.91284Z" fill="#F0F0F0"/>
            <path d="M18.7109 5.91284L19.0564 6.97572H20.1739L19.2697 7.63259L19.6151 8.6954L18.7109 8.03859L17.8068 8.6954L18.1522 7.63259L17.248 6.97572H18.3656L18.7109 5.91284Z" fill="#F0F0F0"/>
            <path d="M17.668 9.04443L18.0133 10.1073H19.1308L18.2267 10.7642L18.5721 11.827L17.668 11.1702L16.7638 11.827L17.1092 10.7642L16.2051 10.1073H17.3225L17.668 9.04443Z" fill="#F0F0F0"/>
            <path d="M14.3321 9.04443L14.6774 10.1073H15.795L14.8908 10.7642L15.2363 11.827L14.3321 11.1702L13.4279 11.827L13.7733 10.7642L12.8691 10.1073H13.9867L14.3321 9.04443Z" fill="#F0F0F0"/>
            </g>
            <defs>
            <clipPath id="clip0_3150_15677">
            <rect width="32" height="32" fill="white"/>
            </clipPath>
            </defs>
            </svg>