<svg width="32" height="32" viewBox="0 0 32 32" fill="none" xmlns="http://www.w3.org/2000/svg">
            <g clip-path="url(#clip0_3165_15428)">
            <path d="M16 32C24.8366 32 32 24.8366 32 16C32 7.16344 24.8366 0 16 0C7.16344 0 0 7.16344 0 16C0 24.8366 7.16344 32 16 32Z" fill="#F0F0F0"/>
            <path d="M3.30709 6.25732C2.05028 7.89251 1.10259 9.7772 0.550781 11.8246H8.8744L3.30709 6.25732Z" fill="#0052B4"/>
            <path d="M31.4485 11.8248C30.8967 9.77744 29.9489 7.89276 28.6922 6.25757L23.125 11.8248H31.4485Z" fill="#0052B4"/>
            <path d="M0.550781 20.1736C1.10266 22.221 2.05034 24.1056 3.3071 25.7408L8.87422 20.1736H0.550781Z" fill="#0052B4"/>
            <path d="M25.7411 3.30643C24.1059 2.04961 22.2213 1.10192 20.1738 0.550049V8.87362L25.7411 3.30643Z" fill="#0052B4"/>
            <path d="M6.25781 28.6904C7.893 29.9472 9.77769 30.8949 11.8251 31.4468V23.1233L6.25781 28.6904Z" fill="#0052B4"/>
            <path d="M11.825 0.550049C9.77763 1.10192 7.89294 2.04961 6.25781 3.30636L11.825 8.87354V0.550049Z" fill="#0052B4"/>
            <path d="M20.1738 31.4468C22.2212 30.8949 24.1059 29.9472 25.741 28.6905L20.1738 23.1233V31.4468Z" fill="#0052B4"/>
            <path d="M23.125 20.1736L28.6922 25.7408C29.9489 24.1057 30.8967 22.221 31.4485 20.1736H23.125Z" fill="#0052B4"/>
            <path d="M31.8646 13.9131H18.0871H18.087V0.135438C17.4038 0.0465 16.7073 0 16 0C15.2926 0 14.5962 0.0465 13.9131 0.135438V13.9129V13.913H0.135438C0.0465 14.5962 0 15.2927 0 16C0 16.7074 0.0465 17.4038 0.135438 18.0869H13.9129H13.913V31.8646C14.5962 31.9535 15.2926 32 16 32C16.7073 32 17.4038 31.9536 18.0869 31.8646V18.0871V18.087H31.8646C31.9535 17.4038 32 16.7074 32 16C32 15.2927 31.9535 14.5962 31.8646 13.9131Z" fill="#D80027"/>
            <path d="M20.1738 20.1751L27.3136 27.3149C27.642 26.9866 27.9552 26.6434 28.2541 26.2877L22.1415 20.175H20.1738V20.1751Z" fill="#D80027"/>
            <path d="M11.8254 20.175H11.8252L4.68555 27.3147C5.0138 27.6431 5.35698 27.9564 5.71273 28.2552L11.8254 22.1425V20.175Z" fill="#D80027"/>
            <path d="M11.8263 11.8255V11.8254L4.68659 4.68555C4.35822 5.0138 4.04497 5.35698 3.74609 5.71273L9.85878 11.8254H11.8263V11.8255Z" fill="#D80027"/>
            <path d="M20.1738 11.8269L27.3136 4.68702C26.9854 4.35864 26.6422 4.04539 26.2865 3.74658L20.1738 9.85927V11.8269Z" fill="#D80027"/>
            </g>
            <defs>
            <clipPath id="clip0_3165_15428">
            <rect width="32" height="32" fill="white"/>
            </clipPath>
            </defs>
            </svg>